- 
http://www.torrentkit.com        thanks for supporting with server cost,  
http://www.torrentkit.com       the fast  and The Hottest Private Tracker on the net

Please Seed back to make the speed Faster!!!

and don't forget to visit      ...... www.torrentkit.com..........
-[img]http://img138.imageshack.us/img138/1803/127hoursbluray.jpg[/img]

[color=blue][size=5][b]127 Hours 2010 BDRip XVID AC3 HQ Hive-CM8[/b][/size][/color]


[b]Thx Hive

CM8 Doing It Right The First Time :D

Why download a touched up rip of a rip BRrip
Get the real deal BDRip
Enjoy

Source US Bluray

Video: 720x384 @bitrate 1800 2pass
Audio: DTS to AC3 5.1 @448
Sample: yes included
Subs: yes english in srt /subs[/b]
 
http://www.imdb.com/title/tt1542344/


General
Complete name                    : 127.Hours.2010.BDRip.XVID.AC3.HQ.Hive-CM8.avi
Format                           : AVI
Format/Info                      : Audio Video Interleave
File size                        : 1.47 GiB
Duration                         : 1h 33mn
Overall bit rate                 : 2 253 Kbps
Writing application              : Nandub v1.0rc2
Writing library                  : Nandub build 1853/release

Video
ID                               : 0
Format                           : MPEG-4 Visual
Format profile                   : Advanced Simple@L5
Format settings, BVOP            : Yes
Format settings, QPel            : Yes
Format settings, GMC             : No warppoints
Format settings, Matrix          : Default (H.263)
Muxing mode                      : Packed bitstream
Codec ID                         : XVID
Codec ID/Hint                    : XviD
Duration                         : 1h 33mn
Bit rate                         : 1 796 Kbps
Width                            : 720 pixels
Height                           : 384 pixels
Display aspect ratio             : 1.850
Frame rate                       : 23.976 fps
Color space                      : YUV
Chroma subsampling               : 4:2:0
Bit depth                        : 8 bits
Scan type                        : Progressive
Bits/(Pixel*Frame)               : 0.271
Stream size                      : 1.18 GiB (80%)
Writing library                  : XviD 1.2.1 (UTC 2008-12-04)

Audio
ID                               : 1
Format                           : AC-3
Format/Info                      : Audio Coding 3
Mode extension                   : CM (complete main)
Codec ID                         : 2000
Duration                         : 1h 33mn
Bit rate mode                    : Constant
Bit rate                         : 448 Kbps
Channel(s)                       : 6 channels
Channel positions                : Front: L C R, Side: L R, LFE
Sampling rate                    : 48.0 KHz
Bit depth                        : 16 bits
Stream size                      : 300 MiB (20%)
Alignment                        : Split accross interleaves
Interleave, duration             : 42 ms (1.00 video frame)
Interleave, preload duration     : 500 ms



James Franco as Aron Ralston
Amber Tamblyn as Megan
Kate Mara as Christie
Clmence Posy as Ralstons lover
Lizzy Caplan as Sonja, Ralstons sister



A mountain climber becomes trapped under a boulder while canyoneering alone near Moab, Utah
and resorts to desperate measures in order to survive.
 


[img]http://img84.imageshack.us/img84/759/127127112711272712727.png[/img]
[img]http://img153.imageshack.us/img153/4278/127c.png[/img]
[img]http://img694.imageshack.us/img694/8937/127127.png[/img]
[img]http://img510.imageshack.us/img510/2038/127127127.png[/img]
[img]http://img546.imageshack.us/img546/1875/127127112727.png[/img]
[img]http://img23.imageshack.us/img23/1820/127127112712727.png[/img]
[img]http://img268.imageshack.us/img268/2629/127127111272712727.png[/img]





Greetz

iNK,LUSi,,MAGNET,CLASSiFiED,THC,LEGi0N,T0XiC,IMAGiNE,ViSiON,WBZ,FLAWL3SS,NOVA
Vik,Rapeseed,D2U,SAFC,goldadvance,MEMORY100,KaN1vE,Unevano,Pinnz,Wayne,Mr Hive
and all P2P groups 
Great Work Guys :D